M48
; DRILL file {KiCad 9.0.6} date 2026-03-03T07:32:06+1100
; FORMAT={-:-/ absolute / metric / decimal}
; #@! TF.CreationDate,2026-03-03T07:32:06+11:00
; #@! TF.GenerationSoftware,Kicad,Pcbnew,9.0.6
; #@! TF.FileFunction,Plated,1,2,PTH
FMAT,2
METRIC
; #@! TA.AperFunction,Plated,PTH,ViaDrill
T1C0.300
; #@! TA.AperFunction,Plated,PTH,ComponentDrill
T2C0.800
; #@! TA.AperFunction,Plated,PTH,ComponentDrill
T3C1.000
; #@! TA.AperFunction,Plated,PTH,ComponentDrill
T4C1.500
; #@! TA.AperFunction,Plated,PTH,ComponentDrill
T5C2.500
%
G90
G05
T1
X422.0Y-107.0
X429.0Y-106.25
X433.5Y-85.0
X462.25Y-88.138
X467.0Y-91.25
X468.75Y-91.25
X469.75Y-94.5
X470.25Y-91.0
T2
X147.38Y-66.0
X147.5Y-86.0
X150.6Y-104.75
X152.31Y-123.75
X155.0Y-66.0
X155.12Y-86.0
X156.54Y-162.05
X156.94Y-143.0
X158.22Y-104.75
X159.93Y-123.75
X164.16Y-162.05
X164.56Y-143.0
X166.19Y-66.0
X166.5Y-85.75
X173.0Y-104.75
X173.81Y-66.0
X174.12Y-85.75
X175.88Y-123.75
X180.62Y-104.75
X183.5Y-123.75
X185.38Y-85.75
X185.38Y-162.0
X185.63Y-143.0
X186.0Y-66.0
X192.25Y-104.75
X193.0Y-85.75
X193.0Y-162.0
X193.25Y-143.0
X193.62Y-66.0
X195.0Y-123.75
X199.87Y-104.75
X202.62Y-123.75
X204.38Y-85.75
X204.38Y-143.0
X204.38Y-162.0
X205.0Y-66.0
X211.0Y-104.75
X212.0Y-85.75
X212.0Y-143.0
X212.0Y-162.0
X212.62Y-66.0
X213.88Y-123.75
X218.62Y-104.75
X221.5Y-123.75
X223.19Y-66.0
X223.63Y-85.75
X223.63Y-143.0
X230.0Y-104.75
X230.81Y-66.0
X231.25Y-85.75
X231.25Y-143.0
X233.0Y-123.75
X237.62Y-104.75
X240.62Y-123.75
X242.38Y-143.0
X242.5Y-66.0
X242.63Y-85.75
X249.13Y-104.75
X250.0Y-143.0
X250.12Y-66.0
X250.25Y-85.75
X252.13Y-123.75
X256.75Y-104.75
X259.75Y-123.75
X261.38Y-162.0
X261.63Y-85.75
X261.63Y-143.0
X261.75Y-66.0
X268.38Y-104.75
X269.0Y-162.0
X269.25Y-85.75
X269.25Y-143.0
X269.37Y-66.0
X271.13Y-123.75
X276.0Y-104.75
X278.75Y-123.75
X280.63Y-85.75
X280.75Y-66.0
X280.75Y-143.0
X287.13Y-104.75
X288.25Y-85.75
X288.37Y-66.0
X288.37Y-143.0
X290.13Y-123.75
X294.75Y-104.75
X297.75Y-123.75
X299.63Y-86.0
X299.75Y-142.75
X299.88Y-66.0
X306.19Y-104.75
X307.25Y-86.0
X307.37Y-142.75
X307.5Y-66.0
X309.13Y-123.75
X313.81Y-104.75
X316.75Y-123.75
X318.63Y-66.0
X319.0Y-85.75
X319.0Y-143.0
X319.0Y-162.0
X325.38Y-104.75
X326.25Y-66.0
X326.62Y-85.75
X326.62Y-143.0
X326.62Y-162.0
X328.38Y-123.75
X333.0Y-104.75
X336.0Y-123.75
X337.75Y-85.75
X337.75Y-143.0
X337.88Y-66.0
X338.0Y-162.0
X344.38Y-104.75
X345.37Y-85.75
X345.37Y-143.0
X345.5Y-66.0
X345.62Y-162.0
X347.38Y-123.75
X352.0Y-104.75
X355.0Y-123.75
X356.88Y-66.0
X357.0Y-85.75
X357.0Y-142.75
X357.19Y-162.0
X363.38Y-104.75
X364.5Y-66.0
X364.62Y-85.75
X364.62Y-142.75
X364.81Y-162.0
X366.38Y-123.75
X371.0Y-104.75
X374.0Y-123.75
X375.75Y-85.75
X375.88Y-66.0
X376.0Y-142.75
X376.0Y-162.0
X382.5Y-104.75
X383.37Y-85.75
X383.5Y-66.0
X383.62Y-142.75
X383.62Y-162.0
X390.12Y-104.75
X394.88Y-66.0
X394.88Y-123.75
X395.0Y-142.75
X395.0Y-162.0
X401.75Y-104.75
X402.5Y-66.0
X402.5Y-123.75
X402.62Y-142.75
X402.62Y-162.0
X404.88Y-85.75
X409.37Y-104.75
X412.5Y-85.75
X413.94Y-66.0
X414.0Y-162.0
X414.13Y-142.75
X421.56Y-66.0
X421.62Y-162.0
X421.75Y-142.75
X433.0Y-162.0
X440.62Y-162.0
X465.5Y-89.38
X465.5Y-97.0
X471.13Y-123.75
X471.13Y-142.75
X471.13Y-162.0
X471.25Y-104.75
X478.75Y-123.75
X478.75Y-142.75
X478.75Y-162.0
X478.87Y-104.75
T3
X435.68Y-64.0
X435.68Y-81.78
X438.22Y-64.0
X438.22Y-81.78
X440.76Y-64.0
X440.76Y-81.78
X443.3Y-64.0
X443.3Y-81.78
X443.63Y-91.9
X445.84Y-64.0
X445.84Y-81.78
X446.17Y-91.9
X448.38Y-64.0
X448.38Y-81.78
X448.71Y-91.9
X450.92Y-64.0
X450.92Y-81.78
X451.25Y-91.9
X453.46Y-64.0
X453.46Y-81.78
X456.0Y-64.0
X456.0Y-81.78
X458.54Y-64.0
X458.54Y-81.78
X461.08Y-64.0
X461.08Y-81.78
X463.62Y-64.0
X463.62Y-81.78
X466.16Y-64.0
X466.16Y-81.78
X468.7Y-64.0
X468.7Y-81.78
X471.24Y-64.0
X471.24Y-81.78
X473.78Y-64.0
X473.78Y-81.78
X476.32Y-64.0
X476.32Y-81.78
X478.86Y-64.0
X478.86Y-81.78
X481.4Y-64.0
X481.4Y-81.78
X483.94Y-64.0
X483.94Y-81.78
T4
X148.59Y-73.66
X148.59Y-92.71
X151.94Y-111.76
X153.65Y-130.81
X154.94Y-71.12
X154.94Y-90.17
X158.13Y-168.96
X158.15Y-149.86
X158.29Y-109.22
X160.0Y-128.27
X164.48Y-166.42
X164.5Y-147.32
X167.64Y-73.66
X167.64Y-92.71
X173.99Y-71.12
X173.99Y-90.17
X174.19Y-111.76
X177.19Y-130.81
X180.54Y-109.22
X183.54Y-128.27
X186.69Y-73.66
X186.69Y-92.71
X186.69Y-149.86
X186.69Y-168.91
X193.04Y-71.12
X193.04Y-90.17
X193.04Y-147.32
X193.04Y-166.37
X193.24Y-111.76
X196.24Y-130.81
X199.59Y-109.22
X202.59Y-128.27
X205.74Y-73.66
X205.74Y-92.71
X205.74Y-149.86
X205.74Y-168.91
X212.09Y-71.12
X212.09Y-90.17
X212.09Y-147.32
X212.09Y-166.37
X212.29Y-111.76
X215.29Y-130.81
X218.64Y-109.22
X221.64Y-128.27
X224.79Y-73.66
X224.79Y-92.71
X224.79Y-149.86
X231.14Y-71.12
X231.14Y-90.17
X231.14Y-147.32
X231.34Y-111.76
X234.34Y-130.81
X237.69Y-109.22
X240.69Y-128.27
X243.84Y-73.66
X243.84Y-92.71
X243.84Y-149.86
X250.19Y-71.12
X250.19Y-90.17
X250.19Y-147.32
X250.39Y-111.76
X253.39Y-130.81
X256.74Y-109.22
X259.74Y-128.27
X262.89Y-73.66
X262.89Y-92.71
X262.89Y-149.86
X262.89Y-168.91
X269.24Y-71.12
X269.24Y-90.17
X269.24Y-147.32
X269.24Y-166.37
X269.44Y-111.76
X272.44Y-130.81
X275.79Y-109.22
X278.79Y-128.27
X281.94Y-73.66
X281.94Y-92.71
X281.94Y-149.86
X288.29Y-71.12
X288.29Y-90.17
X288.29Y-147.32
X288.49Y-111.76
X291.49Y-130.81
X294.84Y-109.22
X297.84Y-128.27
X300.99Y-73.66
X300.99Y-92.71
X300.99Y-149.86
X307.34Y-71.12
X307.34Y-90.17
X307.34Y-147.32
X307.54Y-111.76
X310.54Y-130.81
X313.89Y-109.22
X316.89Y-128.27
X320.04Y-73.66
X320.04Y-92.71
X320.04Y-149.86
X320.04Y-168.91
X326.39Y-71.12
X326.39Y-90.17
X326.39Y-147.32
X326.39Y-166.37
X326.59Y-111.76
X329.59Y-130.81
X332.94Y-109.22
X335.94Y-128.27
X339.09Y-73.66
X339.09Y-92.71
X339.09Y-149.86
X339.09Y-168.91
X345.44Y-71.12
X345.44Y-90.17
X345.44Y-147.32
X345.44Y-166.37
X345.64Y-111.76
X348.64Y-130.81
X351.99Y-109.22
X354.99Y-128.27
X358.14Y-73.66
X358.14Y-92.71
X358.14Y-149.86
X358.14Y-168.91
X364.49Y-71.12
X364.49Y-90.17
X364.49Y-147.32
X364.49Y-166.37
X364.69Y-111.76
X367.69Y-130.81
X371.04Y-109.22
X374.04Y-128.27
X377.19Y-73.66
X377.19Y-92.71
X377.19Y-149.86
X377.19Y-168.91
X383.54Y-71.12
X383.54Y-90.17
X383.54Y-147.32
X383.54Y-166.37
X383.74Y-111.76
X390.09Y-109.22
X396.19Y-130.81
X396.24Y-73.66
X396.24Y-149.86
X396.24Y-168.91
X402.54Y-128.27
X402.59Y-71.12
X402.59Y-147.32
X402.59Y-166.37
X402.79Y-111.76
X405.94Y-92.71
X409.14Y-109.22
X412.29Y-90.17
X415.29Y-73.66
X415.29Y-149.86
X415.29Y-168.91
X421.64Y-71.12
X421.64Y-147.32
X421.64Y-166.37
X434.34Y-168.91
X440.69Y-166.37
X472.44Y-92.71
X472.44Y-111.76
X472.44Y-130.81
X472.44Y-149.86
X472.44Y-168.91
X478.79Y-90.17
X478.79Y-109.22
X478.79Y-128.27
X478.79Y-147.32
X478.79Y-166.37
T5
G00X437.45Y-91.8
M15
G01X435.45Y-91.8
M16
G05
G00X437.45Y-115.9
M15
G01X435.45Y-115.9
M16
G05
G00X459.55Y-91.8
M15
G01X457.55Y-91.8
M16
G05
G00X459.65Y-115.9
M15
G01X457.65Y-115.9
M16
G05
M30
