%TF.GenerationSoftware,KiCad,Pcbnew,9.0.6*%
%TF.CreationDate,2026-03-03T07:32:03+11:00*%
%TF.ProjectId,custom-keyboard,63757374-6f6d-42d6-9b65-79626f617264,rev?*%
%TF.SameCoordinates,Original*%
%TF.FileFunction,Copper,L2,Bot*%
%TF.FilePolarity,Positive*%
%FSLAX46Y46*%
G04 Gerber Fmt 4.6, Leading zero omitted, Abs format (unit mm)*
G04 Created by KiCad (PCBNEW 9.0.6) date 2026-03-03 07:32:03*
%MOMM*%
%LPD*%
G01*
G04 APERTURE LIST*
G04 Aperture macros list*
%AMRoundRect*
0 Rectangle with rounded corners*
0 $1 Rounding radius*
0 $2 $3 $4 $5 $6 $7 $8 $9 X,Y pos of 4 corners*
0 Add a 4 corners polygon primitive as box body*
4,1,4,$2,$3,$4,$5,$6,$7,$8,$9,$2,$3,0*
0 Add four circle primitives for the rounded corners*
1,1,$1+$1,$2,$3*
1,1,$1+$1,$4,$5*
1,1,$1+$1,$6,$7*
1,1,$1+$1,$8,$9*
0 Add four rect primitives between the rounded corners*
20,1,$1+$1,$2,$3,$4,$5,0*
20,1,$1+$1,$4,$5,$6,$7,0*
20,1,$1+$1,$6,$7,$8,$9,0*
20,1,$1+$1,$8,$9,$2,$3,0*%
%AMFreePoly0*
4,1,37,0.603843,0.796157,0.639018,0.796157,0.711114,0.766294,0.766294,0.711114,0.796157,0.639018,0.796157,0.603843,0.800000,0.600000,0.800000,-0.600000,0.796157,-0.603843,0.796157,-0.639018,0.766294,-0.711114,0.711114,-0.766294,0.639018,-0.796157,0.603843,-0.796157,0.600000,-0.800000,0.000000,-0.800000,0.000000,-0.796148,-0.078414,-0.796148,-0.232228,-0.765552,-0.377117,-0.705537,
-0.507515,-0.618408,-0.618408,-0.507515,-0.705537,-0.377117,-0.765552,-0.232228,-0.796148,-0.078414,-0.796148,0.078414,-0.765552,0.232228,-0.705537,0.377117,-0.618408,0.507515,-0.507515,0.618408,-0.377117,0.705537,-0.232228,0.765552,-0.078414,0.796148,0.000000,0.796148,0.000000,0.800000,0.600000,0.800000,0.603843,0.796157,0.603843,0.796157,$1*%
%AMFreePoly1*
4,1,37,0.000000,0.796148,0.078414,0.796148,0.232228,0.765552,0.377117,0.705537,0.507515,0.618408,0.618408,0.507515,0.705537,0.377117,0.765552,0.232228,0.796148,0.078414,0.796148,-0.078414,0.765552,-0.232228,0.705537,-0.377117,0.618408,-0.507515,0.507515,-0.618408,0.377117,-0.705537,0.232228,-0.765552,0.078414,-0.796148,0.000000,-0.796148,0.000000,-0.800000,-0.600000,-0.800000,
-0.603843,-0.796157,-0.639018,-0.796157,-0.711114,-0.766294,-0.766294,-0.711114,-0.796157,-0.639018,-0.796157,-0.603843,-0.800000,-0.600000,-0.800000,0.600000,-0.796157,0.603843,-0.796157,0.639018,-0.766294,0.711114,-0.711114,0.766294,-0.639018,0.796157,-0.603843,0.796157,-0.600000,0.800000,0.000000,0.800000,0.000000,0.796148,0.000000,0.796148,$1*%
G04 Aperture macros list end*
%TA.AperFunction,ComponentPad*%
%ADD10C,2.200000*%
%TD*%
%TA.AperFunction,ComponentPad*%
%ADD11RoundRect,0.250000X-0.550000X-0.550000X0.550000X-0.550000X0.550000X0.550000X-0.550000X0.550000X0*%
%TD*%
%TA.AperFunction,ComponentPad*%
%ADD12C,1.600000*%
%TD*%
%TA.AperFunction,ComponentPad*%
%ADD13RoundRect,0.200000X-0.600000X0.600000X-0.600000X-0.600000X0.600000X-0.600000X0.600000X0.600000X0*%
%TD*%
%TA.AperFunction,ComponentPad*%
%ADD14FreePoly0,270.000000*%
%TD*%
%TA.AperFunction,ComponentPad*%
%ADD15FreePoly1,270.000000*%
%TD*%
%TA.AperFunction,ComponentPad*%
%ADD16RoundRect,0.250000X0.550000X-0.550000X0.550000X0.550000X-0.550000X0.550000X-0.550000X-0.550000X0*%
%TD*%
%TA.AperFunction,ComponentPad*%
%ADD17O,4.680000X2.690000*%
%TD*%
%TA.AperFunction,ComponentPad*%
%ADD18O,1.600000X2.000000*%
%TD*%
%TA.AperFunction,ViaPad*%
%ADD19C,0.600000*%
%TD*%
%TA.AperFunction,Conductor*%
%ADD20C,0.200000*%
%TD*%
G04 APERTURE END LIST*
D10*
%TO.P,D.ARROW,1,1*%
%TO.N,Net-(D76-A)*%
X421640000Y-166370000D03*
%TO.P,D.ARROW,2,2*%
%TO.N,COL14*%
X415290000Y-168910000D03*
%TD*%
D11*
%TO.P,D76,1,K*%
%TO.N,ROW5*%
X414000000Y-162000000D03*
D12*
%TO.P,D76,2,A*%
%TO.N,Net-(D76-A)*%
X421620000Y-162000000D03*
%TD*%
D10*
%TO.P,M,1,1*%
%TO.N,Net-(D68-A)*%
X307340000Y-147320000D03*
%TO.P,M,2,2*%
%TO.N,COL8*%
X300990000Y-149860000D03*
%TD*%
%TO.P,R.ARROW,1,1*%
%TO.N,Net-(D77-A)*%
X440690000Y-166370000D03*
%TO.P,R.ARROW,2,2*%
%TO.N,COL14*%
X434340000Y-168910000D03*
%TD*%
%TO.P,/,1,1*%
%TO.N,Net-(D71-A)*%
X364490000Y-147320000D03*
%TO.P,/,2,2*%
%TO.N,COL11*%
X358140000Y-149860000D03*
%TD*%
%TO.P,CAPSLOCK,1,1*%
%TO.N,Net-(D47-A)*%
X160000000Y-128270000D03*
%TO.P,CAPSLOCK,2,2*%
%TO.N,COL1*%
X153650000Y-130810000D03*
%TD*%
%TO.P,CTRL,1,1*%
%TO.N,Net-(D84-A)*%
X164480000Y-166420000D03*
%TO.P,CTRL,2,2*%
%TO.N,COL1*%
X158130000Y-168960000D03*
%TD*%
%TO.P,W,1,1*%
%TO.N,Net-(D33-A)*%
X199590000Y-109220000D03*
%TO.P,W,2,2*%
%TO.N,COL3*%
X193240000Y-111760000D03*
%TD*%
%TO.P,SW60,1,1*%
%TO.N,Net-(D60-A)*%
X478790000Y-147320000D03*
%TO.P,SW60,2,2*%
%TO.N,COL15*%
X472440000Y-149860000D03*
%TD*%
%TO.P,N6,1,1*%
%TO.N,Net-(D22-A)*%
X269240000Y-90170000D03*
%TO.P,N6,2,2*%
%TO.N,COL7*%
X262890000Y-92710000D03*
%TD*%
%TO.P,Z,1,1*%
%TO.N,Net-(D62-A)*%
X193040000Y-147320000D03*
%TO.P,Z,2,2*%
%TO.N,COL2*%
X186690000Y-149860000D03*
%TD*%
%TO.P,H,1,1*%
%TO.N,Net-(D53-A)*%
X278790000Y-128270000D03*
%TO.P,H,2,2*%
%TO.N,COL7*%
X272440000Y-130810000D03*
%TD*%
%TO.P,F3,1,1*%
%TO.N,Net-(D4-A)*%
X212090000Y-71120000D03*
%TO.P,F3,2,2*%
%TO.N,COL4*%
X205740000Y-73660000D03*
%TD*%
%TO.P,Q,1,1*%
%TO.N,Net-(D32-A)*%
X180540000Y-109220000D03*
%TO.P,Q,2,2*%
%TO.N,COL2*%
X174190000Y-111760000D03*
%TD*%
%TO.P,',1,1*%
%TO.N,Net-(D58-A)*%
X374040000Y-128270000D03*
%TO.P,',2,2*%
%TO.N,COL12*%
X367690000Y-130810000D03*
%TD*%
%TO.P,N2,1,1*%
%TO.N,Net-(D18-A)*%
X193040000Y-90170000D03*
%TO.P,N2,2,2*%
%TO.N,COL3*%
X186690000Y-92710000D03*
%TD*%
%TO.P,N,1,1*%
%TO.N,Net-(D67-A)*%
X288290000Y-147320000D03*
%TO.P,N,2,2*%
%TO.N,COL7*%
X281940000Y-149860000D03*
%TD*%
%TO.P,L.ARROW,1,1*%
%TO.N,Net-(D75-A)*%
X402590000Y-166370000D03*
%TO.P,L.ARROW,2,2*%
%TO.N,COL13*%
X396240000Y-168910000D03*
%TD*%
%TO.P,DEL1,1,1*%
%TO.N,Net-(D14-A)*%
X402590000Y-71120000D03*
%TO.P,DEL1,2,2*%
%TO.N,COL14*%
X396240000Y-73660000D03*
%TD*%
%TO.P,F5,1,1*%
%TO.N,Net-(D6-A)*%
X250190000Y-71120000D03*
%TO.P,F5,2,2*%
%TO.N,COL6*%
X243840000Y-73660000D03*
%TD*%
%TO.P,FN,1,1*%
%TO.N,Net-(D82-A)*%
X383540000Y-166370000D03*
%TO.P,FN,2,2*%
%TO.N,COL12*%
X377190000Y-168910000D03*
%TD*%
%TO.P,F11,1,1*%
%TO.N,Net-(D12-A)*%
X364490000Y-71120000D03*
%TO.P,F11,2,2*%
%TO.N,COL12*%
X358140000Y-73660000D03*
%TD*%
%TO.P,SW45,1,1*%
%TO.N,Net-(D45-A)*%
X478790000Y-109220000D03*
%TO.P,SW45,2,2*%
%TO.N,COL15*%
X472440000Y-111760000D03*
%TD*%
%TO.P,META,1,1*%
%TO.N,Net-(D85-A)*%
X193040000Y-166370000D03*
%TO.P,META,2,2*%
%TO.N,COL2*%
X186690000Y-168910000D03*
%TD*%
%TO.P,G,1,1*%
%TO.N,Net-(D52-A)*%
X259740000Y-128270000D03*
%TO.P,G,2,2*%
%TO.N,COL6*%
X253390000Y-130810000D03*
%TD*%
%TO.P,TAB,1,1*%
%TO.N,Net-(D31-A)*%
X158290000Y-109220000D03*
%TO.P,TAB,2,2*%
%TO.N,COL1*%
X151940000Y-111760000D03*
%TD*%
%TO.P,R,1,1*%
%TO.N,Net-(D35-A)*%
X237690000Y-109220000D03*
%TO.P,R,2,2*%
%TO.N,COL5*%
X231340000Y-111760000D03*
%TD*%
%TO.P,SHIFT,1,1*%
%TO.N,Net-(D61-A)*%
X164500000Y-147320000D03*
%TO.P,SHIFT,2,2*%
%TO.N,COL1*%
X158150000Y-149860000D03*
%TD*%
%TO.P,F8,1,1*%
%TO.N,Net-(D9-A)*%
X307340000Y-71120000D03*
%TO.P,F8,2,2*%
%TO.N,COL9*%
X300990000Y-73660000D03*
%TD*%
%TO.P,F,1,1*%
%TO.N,Net-(D51-A)*%
X240690000Y-128270000D03*
%TO.P,F,2,2*%
%TO.N,COL5*%
X234340000Y-130810000D03*
%TD*%
%TO.P,ESC1,1,1*%
%TO.N,Net-(D1-A)*%
X154940000Y-71120000D03*
%TO.P,ESC1,2,2*%
%TO.N,COL1*%
X148590000Y-73660000D03*
%TD*%
%TO.P,S,1,1*%
%TO.N,Net-(D49-A)*%
X202590000Y-128270000D03*
%TO.P,S,2,2*%
%TO.N,COL3*%
X196240000Y-130810000D03*
%TD*%
%TO.P,A,1,1*%
%TO.N,Net-(D48-A)*%
X183540000Y-128270000D03*
%TO.P,A,2,2*%
%TO.N,COL2*%
X177190000Y-130810000D03*
%TD*%
%TO.P,I,1,1*%
%TO.N,Net-(D39-A)*%
X313890000Y-109220000D03*
%TO.P,I,2,2*%
%TO.N,COL9*%
X307540000Y-111760000D03*
%TD*%
%TO.P,\u002C,1,1*%
%TO.N,Net-(D69-A)*%
X326390000Y-147320000D03*
%TO.P,\u002C,2,2*%
%TO.N,COL9*%
X320040000Y-149860000D03*
%TD*%
%TO.P,-1,1,1*%
%TO.N,Net-(D27-A)*%
X364490000Y-90170000D03*
%TO.P,-1,2,2*%
%TO.N,COL12*%
X358140000Y-92710000D03*
%TD*%
%TO.P,=1,1,1*%
%TO.N,Net-(D28-A)*%
X383540000Y-90170000D03*
%TO.P,=1,2,2*%
%TO.N,COL13*%
X377190000Y-92710000D03*
%TD*%
%TO.P,ALT,1,1*%
%TO.N,Net-(D86-A)*%
X212090000Y-166370000D03*
%TO.P,ALT,2,2*%
%TO.N,COL3*%
X205740000Y-168910000D03*
%TD*%
%TO.P,N1,1,1*%
%TO.N,Net-(D17-A)*%
X173990000Y-90170000D03*
%TO.P,N1,2,2*%
%TO.N,COL2*%
X167640000Y-92710000D03*
%TD*%
%TO.P,F9,1,1*%
%TO.N,Net-(D10-A)*%
X326390000Y-71120000D03*
%TO.P,F9,2,2*%
%TO.N,COL10*%
X320040000Y-73660000D03*
%TD*%
%TO.P,F10,1,1*%
%TO.N,Net-(D11-A)*%
X345440000Y-71120000D03*
%TO.P,F10,2,2*%
%TO.N,COL11*%
X339090000Y-73660000D03*
%TD*%
%TO.P,N5,1,1*%
%TO.N,Net-(D21-A)*%
X250190000Y-90170000D03*
%TO.P,N5,2,2*%
%TO.N,COL6*%
X243840000Y-92710000D03*
%TD*%
%TO.P,\u005C,1,1*%
%TO.N,Net-(D44-A)*%
X409140000Y-109220000D03*
%TO.P,\u005C,2,2*%
%TO.N,COL14*%
X402790000Y-111760000D03*
%TD*%
%TO.P,META,1,1*%
%TO.N,Net-(D80-A)*%
X345440000Y-166370000D03*
%TO.P,META,2,2*%
%TO.N,COL10*%
X339090000Y-168910000D03*
%TD*%
%TO.P,SHIFT,1,1*%
%TO.N,Net-(D72-A)*%
X383540000Y-147320000D03*
%TO.P,SHIFT,2,2*%
%TO.N,COL12*%
X377190000Y-149860000D03*
%TD*%
%TO.P,F2,1,1*%
%TO.N,Net-(D3-A)*%
X193040000Y-71120000D03*
%TO.P,F2,2,2*%
%TO.N,COL3*%
X186690000Y-73660000D03*
%TD*%
%TO.P,P,1,1*%
%TO.N,Net-(D41-A)*%
X351990000Y-109220000D03*
%TO.P,P,2,2*%
%TO.N,COL11*%
X345640000Y-111760000D03*
%TD*%
%TO.P,SW15,1,1*%
%TO.N,Net-(D15-A)*%
X421640000Y-71120000D03*
%TO.P,SW15,2,2*%
%TO.N,COL15*%
X415290000Y-73660000D03*
%TD*%
%TO.P,N7,1,1*%
%TO.N,Net-(D23-A)*%
X288290000Y-90170000D03*
%TO.P,N7,2,2*%
%TO.N,COL8*%
X281940000Y-92710000D03*
%TD*%
%TO.P,BCKSPCE1,1,1*%
%TO.N,Net-(D29-A)*%
X412290000Y-90170000D03*
%TO.P,BCKSPCE1,2,2*%
%TO.N,COL14*%
X405940000Y-92710000D03*
%TD*%
%TO.P,;,1,1*%
%TO.N,Net-(D57-A)*%
X354990000Y-128270000D03*
%TO.P,;,2,2*%
%TO.N,COL11*%
X348640000Y-130810000D03*
%TD*%
%TO.P,Y,1,1*%
%TO.N,Net-(D37-A)*%
X275790000Y-109220000D03*
%TO.P,Y,2,2*%
%TO.N,COL7*%
X269440000Y-111760000D03*
%TD*%
%TO.P,N3,1,1*%
%TO.N,Net-(D19-A)*%
X212090000Y-90170000D03*
%TO.P,N3,2,2*%
%TO.N,COL4*%
X205740000Y-92710000D03*
%TD*%
%TO.P,RIGHT ALT,1,1*%
%TO.N,Net-(D79-A)*%
X326390000Y-166370000D03*
%TO.P,RIGHT ALT,2,2*%
%TO.N,COL9*%
X320040000Y-168910000D03*
%TD*%
D13*
%TO.P,A1,1,GPIO0*%
%TO.N,ROW1*%
X483940000Y-64000000D03*
D12*
%TO.P,A1,2,GPIO1*%
%TO.N,ROW2*%
X481400000Y-64000000D03*
D14*
%TO.P,A1,3,GND*%
%TO.N,GND*%
X478860000Y-64000000D03*
D12*
%TO.P,A1,4,GPIO2*%
%TO.N,ROW3*%
X476320000Y-64000000D03*
%TO.P,A1,5,GPIO3*%
%TO.N,ROW4*%
X473780000Y-64000000D03*
%TO.P,A1,6,GPIO4*%
%TO.N,ROW5*%
X471240000Y-64000000D03*
%TO.P,A1,7,GPIO5*%
%TO.N,ROW6*%
X468700000Y-64000000D03*
D14*
%TO.P,A1,8,GND*%
%TO.N,GND*%
X466160000Y-64000000D03*
D12*
%TO.P,A1,9,GPIO6*%
%TO.N,COL1*%
X463620000Y-64000000D03*
%TO.P,A1,10,GPIO7*%
%TO.N,COL2*%
X461080000Y-64000000D03*
%TO.P,A1,11,GPIO8*%
%TO.N,COL3*%
X458540000Y-64000000D03*
%TO.P,A1,12,GPIO9*%
%TO.N,COL4*%
X456000000Y-64000000D03*
D14*
%TO.P,A1,13,GND*%
%TO.N,GND*%
X453460000Y-64000000D03*
D12*
%TO.P,A1,14,GPIO10*%
%TO.N,COL5*%
X450920000Y-64000000D03*
%TO.P,A1,15,GPIO11*%
%TO.N,COL6*%
X448380000Y-64000000D03*
%TO.P,A1,16,GPIO12*%
%TO.N,COL7*%
X445840000Y-64000000D03*
%TO.P,A1,17,GPIO13*%
%TO.N,COL8*%
X443300000Y-64000000D03*
D14*
%TO.P,A1,18,GND*%
%TO.N,GND*%
X440760000Y-64000000D03*
D12*
%TO.P,A1,19,GPIO14*%
%TO.N,COL9*%
X438220000Y-64000000D03*
%TO.P,A1,20,GPIO15*%
%TO.N,COL10*%
X435680000Y-64000000D03*
%TO.P,A1,21,GPIO16*%
%TO.N,COL11*%
X435680000Y-81780000D03*
%TO.P,A1,22,GPIO17*%
%TO.N,COL12*%
X438220000Y-81780000D03*
D15*
%TO.P,A1,23,GND*%
%TO.N,GND*%
X440760000Y-81780000D03*
D12*
%TO.P,A1,24,GPIO18*%
%TO.N,COL13*%
X443300000Y-81780000D03*
%TO.P,A1,25,GPIO19*%
%TO.N,COL14*%
X445840000Y-81780000D03*
%TO.P,A1,26,GPIO20*%
%TO.N,OLED SDA*%
X448380000Y-81780000D03*
%TO.P,A1,27,GPIO21*%
%TO.N,OLED SCL*%
X450920000Y-81780000D03*
D15*
%TO.P,A1,28,GND*%
%TO.N,GND*%
X453460000Y-81780000D03*
D12*
%TO.P,A1,29,GPIO22*%
%TO.N,COL15*%
X456000000Y-81780000D03*
%TO.P,A1,30,RUN*%
%TO.N,unconnected-(A1-RUN-Pad30)*%
X458540000Y-81780000D03*
%TO.P,A1,31,GPIO26_ADC0*%
%TO.N,unconnected-(A1-GPIO26_ADC0-Pad31)*%
X461080000Y-81780000D03*
%TO.P,A1,32,GPIO27_ADC1*%
%TO.N,unconnected-(A1-GPIO27_ADC1-Pad32)*%
X463620000Y-81780000D03*
D15*
%TO.P,A1,33,AGND*%
%TO.N,unconnected-(A1-AGND-Pad33)*%
X466160000Y-81780000D03*
D12*
%TO.P,A1,34,GPIO28_ADC2*%
%TO.N,unconnected-(A1-GPIO28_ADC2-Pad34)*%
X468700000Y-81780000D03*
%TO.P,A1,35,ADC_VREF*%
%TO.N,unconnected-(A1-ADC_VREF-Pad35)*%
X471240000Y-81780000D03*
%TO.P,A1,36,3V3*%
%TO.N,VCC*%
X473780000Y-81780000D03*
%TO.P,A1,37,3V3_EN*%
%TO.N,unconnected-(A1-3V3_EN-Pad37)*%
X476320000Y-81780000D03*
D15*
%TO.P,A1,38,GND*%
%TO.N,GND*%
X478860000Y-81780000D03*
D12*
%TO.P,A1,39,VSYS*%
%TO.N,unconnected-(A1-VSYS-Pad39)*%
X481400000Y-81780000D03*
%TO.P,A1,40,VBUS*%
%TO.N,unconnected-(A1-VBUS-Pad40)*%
X483940000Y-81780000D03*
%TD*%
D10*
%TO.P,F7,1,1*%
%TO.N,Net-(D8-A)*%
X288290000Y-71120000D03*
%TO.P,F7,2,2*%
%TO.N,COL8*%
X281940000Y-73660000D03*
%TD*%
%TO.P,E,1,1*%
%TO.N,Net-(D34-A)*%
X218640000Y-109220000D03*
%TO.P,E,2,2*%
%TO.N,COL4*%
X212290000Y-111760000D03*
%TD*%
%TO.P,N4,1,1*%
%TO.N,Net-(D20-A)*%
X231140000Y-90170000D03*
%TO.P,N4,2,2*%
%TO.N,COL5*%
X224790000Y-92710000D03*
%TD*%
%TO.P,K,1,1*%
%TO.N,Net-(D55-A)*%
X316890000Y-128270000D03*
%TO.P,K,2,2*%
%TO.N,COL9*%
X310540000Y-130810000D03*
%TD*%
%TO.P,T,1,1*%
%TO.N,Net-(D36-A)*%
X256740000Y-109220000D03*
%TO.P,T,2,2*%
%TO.N,COL6*%
X250390000Y-111760000D03*
%TD*%
%TO.P,O,1,1*%
%TO.N,Net-(D40-A)*%
X332940000Y-109220000D03*
%TO.P,O,2,2*%
%TO.N,COL10*%
X326590000Y-111760000D03*
%TD*%
%TO.P,F1,1,1*%
%TO.N,Net-(D2-A)*%
X173990000Y-71120000D03*
%TO.P,F1,2,2*%
%TO.N,COL2*%
X167640000Y-73660000D03*
%TD*%
%TO.P,U,1,1*%
%TO.N,Net-(D38-A)*%
X294840000Y-109220000D03*
%TO.P,U,2,2*%
%TO.N,COL8*%
X288490000Y-111760000D03*
%TD*%
%TO.P,N9,1,1*%
%TO.N,Net-(D25-A)*%
X326390000Y-90170000D03*
%TO.P,N9,2,2*%
%TO.N,COL10*%
X320040000Y-92710000D03*
%TD*%
%TO.P,C,1,1*%
%TO.N,Net-(D64-A)*%
X231140000Y-147320000D03*
%TO.P,C,2,2*%
%TO.N,COL4*%
X224790000Y-149860000D03*
%TD*%
%TO.P,SW73,1,1*%
%TO.N,Net-(D73-A)*%
X402590000Y-147320000D03*
%TO.P,SW73,2,2*%
%TO.N,COL13*%
X396240000Y-149860000D03*
%TD*%
%TO.P,V,1,1*%
%TO.N,Net-(D65-A)*%
X250190000Y-147320000D03*
%TO.P,V,2,2*%
%TO.N,COL5*%
X243840000Y-149860000D03*
%TD*%
%TO.P,`1,1,1*%
%TO.N,Net-(D16-A)*%
X154940000Y-90170000D03*
%TO.P,`1,2,2*%
%TO.N,COL1*%
X148590000Y-92710000D03*
%TD*%
%TO.P,L,1,1*%
%TO.N,Net-(D56-A)*%
X335940000Y-128270000D03*
%TO.P,L,2,2*%
%TO.N,COL10*%
X329590000Y-130810000D03*
%TD*%
%TO.P,N8,1,1*%
%TO.N,Net-(D24-A)*%
X307340000Y-90170000D03*
%TO.P,N8,2,2*%
%TO.N,COL9*%
X300990000Y-92710000D03*
%TD*%
%TO.P,D,1,1*%
%TO.N,Net-(D50-A)*%
X221640000Y-128270000D03*
%TO.P,D,2,2*%
%TO.N,COL4*%
X215290000Y-130810000D03*
%TD*%
%TO.P,SPACEBAR,1,1*%
%TO.N,Net-(D83-A)*%
X269240000Y-166370000D03*
%TO.P,SPACEBAR,2,2*%
%TO.N,COL6*%
X262890000Y-168910000D03*
%TD*%
%TO.P,ENTER,1,1*%
%TO.N,Net-(D59-A)*%
X402540000Y-128270000D03*
%TO.P,ENTER,2,2*%
%TO.N,COL13*%
X396190000Y-130810000D03*
%TD*%
%TO.P,SW78,1,1*%
%TO.N,Net-(D78-A)*%
X478790000Y-166370000D03*
%TO.P,SW78,2,2*%
%TO.N,COL15*%
X472440000Y-168910000D03*
%TD*%
%TO.P,.,1,1*%
%TO.N,Net-(D70-A)*%
X345440000Y-147320000D03*
%TO.P,.,2,2*%
%TO.N,COL10*%
X339090000Y-149860000D03*
%TD*%
%TO.P,SW30,1,1*%
%TO.N,Net-(D30-A)*%
X478790000Y-90170000D03*
%TO.P,SW30,2,2*%
%TO.N,COL15*%
X472440000Y-92710000D03*
%TD*%
%TO.P,SW46,1,1*%
%TO.N,Net-(D46-A)*%
X478790000Y-128270000D03*
%TO.P,SW46,2,2*%
%TO.N,COL15*%
X472440000Y-130810000D03*
%TD*%
%TO.P,F6,1,1*%
%TO.N,Net-(D7-A)*%
X269240000Y-71120000D03*
%TO.P,F6,2,2*%
%TO.N,COL7*%
X262890000Y-73660000D03*
%TD*%
%TO.P,B,1,1*%
%TO.N,Net-(D66-A)*%
X269240000Y-147320000D03*
%TO.P,B,2,2*%
%TO.N,COL6*%
X262890000Y-149860000D03*
%TD*%
%TO.P,RIGHT CTRL,1,1*%
%TO.N,Net-(D81-A)*%
X364490000Y-166370000D03*
%TO.P,RIGHT CTRL,2,2*%
%TO.N,COL11*%
X358140000Y-168910000D03*
%TD*%
%TO.P,F12,1,1*%
%TO.N,Net-(D13-A)*%
X383540000Y-71120000D03*
%TO.P,F12,2,2*%
%TO.N,COL13*%
X377190000Y-73660000D03*
%TD*%
%TO.P,F4,1,1*%
%TO.N,Net-(D5-A)*%
X231140000Y-71120000D03*
%TO.P,F4,2,2*%
%TO.N,COL5*%
X224790000Y-73660000D03*
%TD*%
%TO.P,J,1,1*%
%TO.N,Net-(D54-A)*%
X297840000Y-128270000D03*
%TO.P,J,2,2*%
%TO.N,COL8*%
X291490000Y-130810000D03*
%TD*%
%TO.P,U.ARROW,1,1*%
%TO.N,Net-(D74-A)*%
X421640000Y-147320000D03*
%TO.P,U.ARROW,2,2*%
%TO.N,COL14*%
X415290000Y-149860000D03*
%TD*%
%TO.P,],1,1*%
%TO.N,Net-(D43-A)*%
X390090000Y-109220000D03*
%TO.P,],2,2*%
%TO.N,COL13*%
X383740000Y-111760000D03*
%TD*%
%TO.P,N0,1,1*%
%TO.N,Net-(D26-A)*%
X345440000Y-90170000D03*
%TO.P,N0,2,2*%
%TO.N,COL11*%
X339090000Y-92710000D03*
%TD*%
%TO.P,X,1,1*%
%TO.N,Net-(D63-A)*%
X212090000Y-147320000D03*
%TO.P,X,2,2*%
%TO.N,COL3*%
X205740000Y-149860000D03*
%TD*%
%TO.P,[,1,1*%
%TO.N,Net-(D42-A)*%
X371040000Y-109220000D03*
%TO.P,[,2,2*%
%TO.N,COL12*%
X364690000Y-111760000D03*
%TD*%
D11*
%TO.P,D73,1,K*%
%TO.N,ROW5*%
X395000000Y-142750000D03*
D12*
%TO.P,D73,2,A*%
%TO.N,Net-(D73-A)*%
X402620000Y-142750000D03*
%TD*%
D16*
%TO.P,D30,1,K*%
%TO.N,ROW2*%
X465500000Y-97000000D03*
D12*
%TO.P,D30,2,A*%
%TO.N,Net-(D30-A)*%
X465500000Y-89380000D03*
%TD*%
D11*
%TO.P,D56,1,K*%
%TO.N,ROW4*%
X328380000Y-123750000D03*
D12*
%TO.P,D56,2,A*%
%TO.N,Net-(D56-A)*%
X336000000Y-123750000D03*
%TD*%
D11*
%TO.P,D9,1,K*%
%TO.N,ROW1*%
X299880000Y-66000000D03*
D12*
%TO.P,D9,2,A*%
%TO.N,Net-(D9-A)*%
X307500000Y-66000000D03*
%TD*%
D11*
%TO.P,D13,1,K*%
%TO.N,ROW1*%
X375880000Y-66000000D03*
D12*
%TO.P,D13,2,A*%
%TO.N,Net-(D13-A)*%
X383500000Y-66000000D03*
%TD*%
D11*
%TO.P,D45,1,K*%
%TO.N,ROW3*%
X471250000Y-104750000D03*
D12*
%TO.P,D45,2,A*%
%TO.N,Net-(D45-A)*%
X478870000Y-104750000D03*
%TD*%
D11*
%TO.P,D66,1,K*%
%TO.N,ROW5*%
X261630000Y-143000000D03*
D12*
%TO.P,D66,2,A*%
%TO.N,Net-(D66-A)*%
X269250000Y-143000000D03*
%TD*%
D11*
%TO.P,D36,1,K*%
%TO.N,ROW3*%
X249130000Y-104750000D03*
D12*
%TO.P,D36,2,A*%
%TO.N,Net-(D36-A)*%
X256750000Y-104750000D03*
%TD*%
D11*
%TO.P,D51,1,K*%
%TO.N,ROW4*%
X233000000Y-123750000D03*
D12*
%TO.P,D51,2,A*%
%TO.N,Net-(D51-A)*%
X240620000Y-123750000D03*
%TD*%
D11*
%TO.P,D74,1,K*%
%TO.N,ROW4*%
X414130000Y-142750000D03*
D12*
%TO.P,D74,2,A*%
%TO.N,Net-(D74-A)*%
X421750000Y-142750000D03*
%TD*%
D11*
%TO.P,D82,1,K*%
%TO.N,ROW6*%
X376000000Y-162000000D03*
D12*
%TO.P,D82,2,A*%
%TO.N,Net-(D82-A)*%
X383620000Y-162000000D03*
%TD*%
D11*
%TO.P,D83,1,K*%
%TO.N,ROW6*%
X261380000Y-162000000D03*
D12*
%TO.P,D83,2,A*%
%TO.N,Net-(D83-A)*%
X269000000Y-162000000D03*
%TD*%
D11*
%TO.P,D5,1,K*%
%TO.N,ROW1*%
X223190000Y-66000000D03*
D12*
%TO.P,D5,2,A*%
%TO.N,Net-(D5-A)*%
X230810000Y-66000000D03*
%TD*%
D11*
%TO.P,D20,1,K*%
%TO.N,ROW2*%
X223630000Y-85750000D03*
D12*
%TO.P,D20,2,A*%
%TO.N,Net-(D20-A)*%
X231250000Y-85750000D03*
%TD*%
D11*
%TO.P,D2,1,K*%
%TO.N,ROW1*%
X166190000Y-66000000D03*
D12*
%TO.P,D2,2,A*%
%TO.N,Net-(D2-A)*%
X173810000Y-66000000D03*
%TD*%
D11*
%TO.P,D31,1,K*%
%TO.N,ROW3*%
X150600000Y-104750000D03*
D12*
%TO.P,D31,2,A*%
%TO.N,Net-(D31-A)*%
X158220000Y-104750000D03*
%TD*%
D11*
%TO.P,D50,1,K*%
%TO.N,ROW4*%
X213880000Y-123750000D03*
D12*
%TO.P,D50,2,A*%
%TO.N,Net-(D50-A)*%
X221500000Y-123750000D03*
%TD*%
D11*
%TO.P,D29,1,K*%
%TO.N,ROW2*%
X404880000Y-85750000D03*
D12*
%TO.P,D29,2,A*%
%TO.N,Net-(D29-A)*%
X412500000Y-85750000D03*
%TD*%
D11*
%TO.P,D48,1,K*%
%TO.N,ROW4*%
X175880000Y-123750000D03*
D12*
%TO.P,D48,2,A*%
%TO.N,Net-(D48-A)*%
X183500000Y-123750000D03*
%TD*%
D11*
%TO.P,D18,1,K*%
%TO.N,ROW2*%
X185380000Y-85750000D03*
D12*
%TO.P,D18,2,A*%
%TO.N,Net-(D18-A)*%
X193000000Y-85750000D03*
%TD*%
D11*
%TO.P,D34,1,K*%
%TO.N,ROW3*%
X211000000Y-104750000D03*
D12*
%TO.P,D34,2,A*%
%TO.N,Net-(D34-A)*%
X218620000Y-104750000D03*
%TD*%
D11*
%TO.P,D17,1,K*%
%TO.N,ROW2*%
X166500000Y-85750000D03*
D12*
%TO.P,D17,2,A*%
%TO.N,Net-(D17-A)*%
X174120000Y-85750000D03*
%TD*%
D11*
%TO.P,D37,1,K*%
%TO.N,ROW3*%
X268380000Y-104750000D03*
D12*
%TO.P,D37,2,A*%
%TO.N,Net-(D37-A)*%
X276000000Y-104750000D03*
%TD*%
D11*
%TO.P,D79,1,K*%
%TO.N,ROW6*%
X319000000Y-162000000D03*
D12*
%TO.P,D79,2,A*%
%TO.N,Net-(D79-A)*%
X326620000Y-162000000D03*
%TD*%
D11*
%TO.P,D19,1,K*%
%TO.N,ROW2*%
X204380000Y-85750000D03*
D12*
%TO.P,D19,2,A*%
%TO.N,Net-(D19-A)*%
X212000000Y-85750000D03*
%TD*%
D11*
%TO.P,D11,1,K*%
%TO.N,ROW1*%
X337880000Y-66000000D03*
D12*
%TO.P,D11,2,A*%
%TO.N,Net-(D11-A)*%
X345500000Y-66000000D03*
%TD*%
D11*
%TO.P,D14,1,K*%
%TO.N,ROW1*%
X394880000Y-66000000D03*
D12*
%TO.P,D14,2,A*%
%TO.N,Net-(D14-A)*%
X402500000Y-66000000D03*
%TD*%
D11*
%TO.P,D44,1,K*%
%TO.N,ROW3*%
X401750000Y-104750000D03*
D12*
%TO.P,D44,2,A*%
%TO.N,Net-(D44-A)*%
X409370000Y-104750000D03*
%TD*%
D11*
%TO.P,D64,1,K*%
%TO.N,ROW5*%
X223630000Y-143000000D03*
D12*
%TO.P,D64,2,A*%
%TO.N,Net-(D64-A)*%
X231250000Y-143000000D03*
%TD*%
D11*
%TO.P,D54,1,K*%
%TO.N,ROW4*%
X290130000Y-123750000D03*
D12*
%TO.P,D54,2,A*%
%TO.N,Net-(D54-A)*%
X297750000Y-123750000D03*
%TD*%
D11*
%TO.P,D47,1,K*%
%TO.N,ROW4*%
X152310000Y-123750000D03*
D12*
%TO.P,D47,2,A*%
%TO.N,Net-(D47-A)*%
X159930000Y-123750000D03*
%TD*%
D11*
%TO.P,D21,1,K*%
%TO.N,ROW2*%
X242630000Y-85750000D03*
D12*
%TO.P,D21,2,A*%
%TO.N,Net-(D21-A)*%
X250250000Y-85750000D03*
%TD*%
D11*
%TO.P,D52,1,K*%
%TO.N,ROW4*%
X252130000Y-123750000D03*
D12*
%TO.P,D52,2,A*%
%TO.N,Net-(D52-A)*%
X259750000Y-123750000D03*
%TD*%
D11*
%TO.P,D26,1,K*%
%TO.N,ROW2*%
X337750000Y-85750000D03*
D12*
%TO.P,D26,2,A*%
%TO.N,Net-(D26-A)*%
X345370000Y-85750000D03*
%TD*%
D11*
%TO.P,D3,1,K*%
%TO.N,ROW1*%
X186000000Y-66000000D03*
D12*
%TO.P,D3,2,A*%
%TO.N,Net-(D3-A)*%
X193620000Y-66000000D03*
%TD*%
D11*
%TO.P,D68,1,K*%
%TO.N,ROW5*%
X299750000Y-142750000D03*
D12*
%TO.P,D68,2,A*%
%TO.N,Net-(D68-A)*%
X307370000Y-142750000D03*
%TD*%
D11*
%TO.P,D57,1,K*%
%TO.N,ROW4*%
X347380000Y-123750000D03*
D12*
%TO.P,D57,2,A*%
%TO.N,Net-(D57-A)*%
X355000000Y-123750000D03*
%TD*%
D11*
%TO.P,D28,1,K*%
%TO.N,ROW2*%
X375750000Y-85750000D03*
D12*
%TO.P,D28,2,A*%
%TO.N,Net-(D28-A)*%
X383370000Y-85750000D03*
%TD*%
D11*
%TO.P,D1,1,K*%
%TO.N,ROW1*%
X147380000Y-66000000D03*
D12*
%TO.P,D1,2,A*%
%TO.N,Net-(D1-A)*%
X155000000Y-66000000D03*
%TD*%
D11*
%TO.P,D7,1,K*%
%TO.N,ROW1*%
X261750000Y-66000000D03*
D12*
%TO.P,D7,2,A*%
%TO.N,Net-(D7-A)*%
X269370000Y-66000000D03*
%TD*%
D11*
%TO.P,D84,1,K*%
%TO.N,ROW6*%
X156540000Y-162050000D03*
D12*
%TO.P,D84,2,A*%
%TO.N,Net-(D84-A)*%
X164160000Y-162050000D03*
%TD*%
D11*
%TO.P,D78,1,K*%
%TO.N,ROW6*%
X471130000Y-162000000D03*
D12*
%TO.P,D78,2,A*%
%TO.N,Net-(D78-A)*%
X478750000Y-162000000D03*
%TD*%
D11*
%TO.P,D4,1,K*%
%TO.N,ROW1*%
X205000000Y-66000000D03*
D12*
%TO.P,D4,2,A*%
%TO.N,Net-(D4-A)*%
X212620000Y-66000000D03*
%TD*%
D11*
%TO.P,D43,1,K*%
%TO.N,ROW3*%
X382500000Y-104750000D03*
D12*
%TO.P,D43,2,A*%
%TO.N,Net-(D43-A)*%
X390120000Y-104750000D03*
%TD*%
D11*
%TO.P,D25,1,K*%
%TO.N,ROW2*%
X319000000Y-85750000D03*
D12*
%TO.P,D25,2,A*%
%TO.N,Net-(D25-A)*%
X326620000Y-85750000D03*
%TD*%
D11*
%TO.P,D10,1,K*%
%TO.N,ROW1*%
X318630000Y-66000000D03*
D12*
%TO.P,D10,2,A*%
%TO.N,Net-(D10-A)*%
X326250000Y-66000000D03*
%TD*%
D11*
%TO.P,D53,1,K*%
%TO.N,ROW4*%
X271130000Y-123750000D03*
D12*
%TO.P,D53,2,A*%
%TO.N,Net-(D53-A)*%
X278750000Y-123750000D03*
%TD*%
D11*
%TO.P,D62,1,K*%
%TO.N,ROW5*%
X185630000Y-143000000D03*
D12*
%TO.P,D62,2,A*%
%TO.N,Net-(D62-A)*%
X193250000Y-143000000D03*
%TD*%
D11*
%TO.P,D65,1,K*%
%TO.N,ROW5*%
X242380000Y-143000000D03*
D12*
%TO.P,D65,2,A*%
%TO.N,Net-(D65-A)*%
X250000000Y-143000000D03*
%TD*%
D11*
%TO.P,D8,1,K*%
%TO.N,ROW1*%
X280750000Y-66000000D03*
D12*
%TO.P,D8,2,A*%
%TO.N,Net-(D8-A)*%
X288370000Y-66000000D03*
%TD*%
D11*
%TO.P,D15,1,K*%
%TO.N,ROW1*%
X413940000Y-66000000D03*
D12*
%TO.P,D15,2,A*%
%TO.N,Net-(D15-A)*%
X421560000Y-66000000D03*
%TD*%
D11*
%TO.P,D40,1,K*%
%TO.N,ROW3*%
X325380000Y-104750000D03*
D12*
%TO.P,D40,2,A*%
%TO.N,Net-(D40-A)*%
X333000000Y-104750000D03*
%TD*%
D11*
%TO.P,D24,1,K*%
%TO.N,ROW2*%
X299630000Y-86000000D03*
D12*
%TO.P,D24,2,A*%
%TO.N,Net-(D24-A)*%
X307250000Y-86000000D03*
%TD*%
D11*
%TO.P,D60,1,K*%
%TO.N,ROW5*%
X471130000Y-142750000D03*
D12*
%TO.P,D60,2,A*%
%TO.N,Net-(D60-A)*%
X478750000Y-142750000D03*
%TD*%
D11*
%TO.P,D81,1,K*%
%TO.N,ROW6*%
X357190000Y-162000000D03*
D12*
%TO.P,D81,2,A*%
%TO.N,Net-(D81-A)*%
X364810000Y-162000000D03*
%TD*%
D11*
%TO.P,D33,1,K*%
%TO.N,ROW3*%
X192250000Y-104750000D03*
D12*
%TO.P,D33,2,A*%
%TO.N,Net-(D33-A)*%
X199870000Y-104750000D03*
%TD*%
D11*
%TO.P,D70,1,K*%
%TO.N,ROW5*%
X337750000Y-143000000D03*
D12*
%TO.P,D70,2,A*%
%TO.N,Net-(D70-A)*%
X345370000Y-143000000D03*
%TD*%
D11*
%TO.P,D58,1,K*%
%TO.N,ROW4*%
X366380000Y-123750000D03*
D12*
%TO.P,D58,2,A*%
%TO.N,Net-(D58-A)*%
X374000000Y-123750000D03*
%TD*%
D11*
%TO.P,D46,1,K*%
%TO.N,ROW4*%
X471130000Y-123750000D03*
D12*
%TO.P,D46,2,A*%
%TO.N,Net-(D46-A)*%
X478750000Y-123750000D03*
%TD*%
D11*
%TO.P,D86,1,K*%
%TO.N,ROW6*%
X204380000Y-162000000D03*
D12*
%TO.P,D86,2,A*%
%TO.N,Net-(D86-A)*%
X212000000Y-162000000D03*
%TD*%
D11*
%TO.P,D61,1,K*%
%TO.N,ROW5*%
X156940000Y-143000000D03*
D12*
%TO.P,D61,2,A*%
%TO.N,Net-(D61-A)*%
X164560000Y-143000000D03*
%TD*%
D11*
%TO.P,D12,1,K*%
%TO.N,ROW1*%
X356880000Y-66000000D03*
D12*
%TO.P,D12,2,A*%
%TO.N,Net-(D12-A)*%
X364500000Y-66000000D03*
%TD*%
D11*
%TO.P,D63,1,K*%
%TO.N,ROW5*%
X204380000Y-143000000D03*
D12*
%TO.P,D63,2,A*%
%TO.N,Net-(D63-A)*%
X212000000Y-143000000D03*
%TD*%
D11*
%TO.P,D38,1,K*%
%TO.N,ROW3*%
X287130000Y-104750000D03*
D12*
%TO.P,D38,2,A*%
%TO.N,Net-(D38-A)*%
X294750000Y-104750000D03*
%TD*%
D11*
%TO.P,D16,1,K*%
%TO.N,ROW2*%
X147500000Y-86000000D03*
D12*
%TO.P,D16,2,A*%
%TO.N,Net-(D16-A)*%
X155120000Y-86000000D03*
%TD*%
D11*
%TO.P,D55,1,K*%
%TO.N,ROW4*%
X309130000Y-123750000D03*
D12*
%TO.P,D55,2,A*%
%TO.N,Net-(D55-A)*%
X316750000Y-123750000D03*
%TD*%
D11*
%TO.P,D6,1,K*%
%TO.N,ROW1*%
X242500000Y-66000000D03*
D12*
%TO.P,D6,2,A*%
%TO.N,Net-(D6-A)*%
X250120000Y-66000000D03*
%TD*%
D11*
%TO.P,D27,1,K*%
%TO.N,ROW2*%
X357000000Y-85750000D03*
D12*
%TO.P,D27,2,A*%
%TO.N,Net-(D27-A)*%
X364620000Y-85750000D03*
%TD*%
D11*
%TO.P,D77,1,K*%
%TO.N,ROW6*%
X433000000Y-162000000D03*
D12*
%TO.P,D77,2,A*%
%TO.N,Net-(D77-A)*%
X440620000Y-162000000D03*
%TD*%
D11*
%TO.P,D42,1,K*%
%TO.N,ROW3*%
X363380000Y-104750000D03*
D12*
%TO.P,D42,2,A*%
%TO.N,Net-(D42-A)*%
X371000000Y-104750000D03*
%TD*%
D11*
%TO.P,D35,1,K*%
%TO.N,ROW3*%
X230000000Y-104750000D03*
D12*
%TO.P,D35,2,A*%
%TO.N,Net-(D35-A)*%
X237620000Y-104750000D03*
%TD*%
D11*
%TO.P,D75,1,K*%
%TO.N,ROW6*%
X395000000Y-162000000D03*
D12*
%TO.P,D75,2,A*%
%TO.N,Net-(D75-A)*%
X402620000Y-162000000D03*
%TD*%
D11*
%TO.P,D23,1,K*%
%TO.N,ROW2*%
X280630000Y-85750000D03*
D12*
%TO.P,D23,2,A*%
%TO.N,Net-(D23-A)*%
X288250000Y-85750000D03*
%TD*%
D11*
%TO.P,D72,1,K*%
%TO.N,ROW5*%
X376000000Y-142750000D03*
D12*
%TO.P,D72,2,A*%
%TO.N,Net-(D72-A)*%
X383620000Y-142750000D03*
%TD*%
D11*
%TO.P,D71,1,K*%
%TO.N,ROW5*%
X357000000Y-142750000D03*
D12*
%TO.P,D71,2,A*%
%TO.N,Net-(D71-A)*%
X364620000Y-142750000D03*
%TD*%
D11*
%TO.P,D80,1,K*%
%TO.N,ROW6*%
X338000000Y-162000000D03*
D12*
%TO.P,D80,2,A*%
%TO.N,Net-(D80-A)*%
X345620000Y-162000000D03*
%TD*%
D11*
%TO.P,D39,1,K*%
%TO.N,ROW3*%
X306190000Y-104750000D03*
D12*
%TO.P,D39,2,A*%
%TO.N,Net-(D39-A)*%
X313810000Y-104750000D03*
%TD*%
D11*
%TO.P,D32,1,K*%
%TO.N,ROW3*%
X173000000Y-104750000D03*
D12*
%TO.P,D32,2,A*%
%TO.N,Net-(D32-A)*%
X180620000Y-104750000D03*
%TD*%
D11*
%TO.P,D41,1,K*%
%TO.N,ROW3*%
X344380000Y-104750000D03*
D12*
%TO.P,D41,2,A*%
%TO.N,Net-(D41-A)*%
X352000000Y-104750000D03*
%TD*%
D11*
%TO.P,D49,1,K*%
%TO.N,ROW4*%
X195000000Y-123750000D03*
D12*
%TO.P,D49,2,A*%
%TO.N,Net-(D49-A)*%
X202620000Y-123750000D03*
%TD*%
D11*
%TO.P,D22,1,K*%
%TO.N,ROW2*%
X261630000Y-85750000D03*
D12*
%TO.P,D22,2,A*%
%TO.N,Net-(D22-A)*%
X269250000Y-85750000D03*
%TD*%
D11*
%TO.P,D59,1,K*%
%TO.N,ROW4*%
X394880000Y-123750000D03*
D12*
%TO.P,D59,2,A*%
%TO.N,Net-(D59-A)*%
X402500000Y-123750000D03*
%TD*%
D11*
%TO.P,D69,1,K*%
%TO.N,ROW5*%
X319000000Y-143000000D03*
D12*
%TO.P,D69,2,A*%
%TO.N,Net-(D69-A)*%
X326620000Y-143000000D03*
%TD*%
D11*
%TO.P,D85,1,K*%
%TO.N,ROW6*%
X185380000Y-162000000D03*
D12*
%TO.P,D85,2,A*%
%TO.N,Net-(D85-A)*%
X193000000Y-162000000D03*
%TD*%
D11*
%TO.P,D67,1,K*%
%TO.N,ROW5*%
X280750000Y-143000000D03*
D12*
%TO.P,D67,2,A*%
%TO.N,Net-(D67-A)*%
X288370000Y-143000000D03*
%TD*%
D17*
%TO.P,OL1,*%
%TO.N,*%
X436450000Y-91800000D03*
X436450000Y-115900000D03*
X458550000Y-91800000D03*
X458650000Y-115900000D03*
D18*
%TO.P,OL1,1,SDA*%
%TO.N,OLED SDA*%
X443630000Y-91900000D03*
%TO.P,OL1,2,SCL*%
%TO.N,OLED SCL*%
X446170000Y-91900000D03*
%TO.P,OL1,3,GND*%
%TO.N,GND*%
X448710000Y-91900000D03*
%TO.P,OL1,4,VCC*%
%TO.N,VCC*%
X451250000Y-91900000D03*
%TD*%
D19*
%TO.N,COL14*%
X433500000Y-85000000D03*
%TO.N,ROW3*%
X468750000Y-91250000D03*
%TO.N,ROW6*%
X462250000Y-88138000D03*
%TO.N,COL13*%
X429000000Y-106250000D03*
%TO.N,ROW4*%
X467000000Y-91250000D03*
%TO.N,COL12*%
X422000000Y-107000000D03*
%TO.N,VCC*%
X469750000Y-94500000D03*
X470250000Y-91000000D03*
%TD*%
D20*
%TO.N,ROW2*%
X414101000Y-86851000D02*
X424250000Y-97000000D01*
%TO.N,ROW3*%
X171899000Y-103649000D02*
X173000000Y-104750000D01*
X151701000Y-103649000D02*
X171899000Y-103649000D01*
X150600000Y-104750000D02*
X151701000Y-103649000D01*
%TO.N,ROW4*%
X453275000Y-141605000D02*
X415112200Y-141605000D01*
X471130000Y-123750000D02*
X453275000Y-141605000D01*
X415112200Y-141605000D02*
X414130000Y-142587200D01*
X414130000Y-142587200D02*
X414130000Y-142750000D01*
%TO.N,COL1*%
X458616800Y-57500000D02*
X161371800Y-57500000D01*
X148590000Y-70281800D02*
X148590000Y-73660000D01*
X463620000Y-62503200D02*
X458616800Y-57500000D01*
X161371800Y-57500000D02*
X148590000Y-70281800D01*
X463620000Y-64000000D02*
X463620000Y-62503200D01*
%TO.N,COL2*%
X167640000Y-58860000D02*
X167640000Y-73660000D01*
X167750000Y-58750000D02*
X167640000Y-58860000D01*
X456272000Y-58000000D02*
X167750000Y-58000000D01*
X167750000Y-58000000D02*
X167750000Y-58750000D01*
X461080000Y-62808000D02*
X456272000Y-58000000D01*
X461080000Y-64000000D02*
X461080000Y-62808000D01*
%TO.N,COL3*%
X187250000Y-73100000D02*
X186690000Y-73660000D01*
X187250000Y-58500000D02*
X187250000Y-73100000D01*
X458540000Y-64000000D02*
X458540000Y-62452400D01*
X458540000Y-62452400D02*
X454587600Y-58500000D01*
X454587600Y-58500000D02*
X187250000Y-58500000D01*
%TO.N,COL4*%
X206750000Y-72650000D02*
X205740000Y-73660000D01*
X206750000Y-59000000D02*
X206750000Y-72650000D01*
X456000000Y-63062000D02*
X451938000Y-59000000D01*
X451938000Y-59000000D02*
X206750000Y-59000000D01*
X456000000Y-64000000D02*
X456000000Y-63062000D01*
%TO.N,COL5*%
X224790000Y-59540000D02*
X224790000Y-73660000D01*
X224750000Y-59500000D02*
X224790000Y-59540000D01*
X447713600Y-59500000D02*
X224750000Y-59500000D01*
X450920000Y-64000000D02*
X450920000Y-62706400D01*
X450920000Y-62706400D02*
X447713600Y-59500000D01*
%TO.N,COL6*%
X243840000Y-60410000D02*
X243840000Y-73660000D01*
X244250000Y-60000000D02*
X243840000Y-60410000D01*
X445775200Y-60000000D02*
X244250000Y-60000000D01*
X448380000Y-62604800D02*
X445775200Y-60000000D01*
X448380000Y-64000000D02*
X448380000Y-62604800D01*
%TO.N,COL7*%
X262890000Y-60610000D02*
X262890000Y-73660000D01*
X263000000Y-60500000D02*
X262890000Y-60610000D01*
X443532000Y-60500000D02*
X263000000Y-60500000D01*
X445840000Y-62808000D02*
X443532000Y-60500000D01*
X445840000Y-64000000D02*
X445840000Y-62808000D01*
%TO.N,COL8*%
X281940000Y-61060000D02*
X281940000Y-73660000D01*
X443300000Y-62833400D02*
X441466600Y-61000000D01*
X441466600Y-61000000D02*
X282000000Y-61000000D01*
X443300000Y-64000000D02*
X443300000Y-62833400D01*
X282000000Y-61000000D02*
X281940000Y-61060000D01*
%TO.N,COL9*%
X300990000Y-61411000D02*
X300990000Y-73660000D01*
X301000000Y-61401000D02*
X300990000Y-61411000D01*
X438220000Y-62122200D02*
X437498800Y-61401000D01*
X437498800Y-61401000D02*
X301000000Y-61401000D01*
X438220000Y-64000000D02*
X438220000Y-62122200D01*
%TO.N,ROW4*%
X413029000Y-141649000D02*
X414130000Y-142750000D01*
X401520530Y-141649000D02*
X413029000Y-141649000D01*
X393719000Y-124911000D02*
X393719000Y-133847470D01*
X394880000Y-123750000D02*
X393719000Y-124911000D01*
X393719000Y-133847470D02*
X401520530Y-141649000D01*
%TO.N,ROW2*%
X404880000Y-85750000D02*
X405981000Y-86851000D01*
X424250000Y-97000000D02*
X465500000Y-97000000D01*
X405981000Y-86851000D02*
X414101000Y-86851000D01*
X403779000Y-84649000D02*
X404880000Y-85750000D01*
X376851000Y-84649000D02*
X403779000Y-84649000D01*
X375750000Y-85750000D02*
X376851000Y-84649000D01*
%TO.N,COL13*%
X404440000Y-130810000D02*
X429000000Y-106250000D01*
X396190000Y-130810000D02*
X404440000Y-130810000D01*
%TO.N,ROW4*%
X393779000Y-122649000D02*
X394880000Y-123750000D01*
X367481000Y-122649000D02*
X393779000Y-122649000D01*
X366380000Y-123750000D02*
X367481000Y-122649000D01*
%TO.N,ROW2*%
X148750000Y-84750000D02*
X165500000Y-84750000D01*
X165500000Y-84750000D02*
X166500000Y-85750000D01*
X147500000Y-86000000D02*
X148750000Y-84750000D01*
%TO.N,ROW4*%
X174779000Y-122649000D02*
X175880000Y-123750000D01*
X152310000Y-123750000D02*
X153411000Y-122649000D01*
X153411000Y-122649000D02*
X174779000Y-122649000D01*
%TO.N,ROW5*%
X158041000Y-141899000D02*
X184529000Y-141899000D01*
X184529000Y-141899000D02*
X185630000Y-143000000D01*
X156940000Y-143000000D02*
X158041000Y-141899000D01*
%TO.N,ROW6*%
X157641000Y-160949000D02*
X184329000Y-160949000D01*
X156540000Y-162050000D02*
X157641000Y-160949000D01*
X184329000Y-160949000D02*
X185380000Y-162000000D01*
%TO.N,COL14*%
X433500000Y-85000000D02*
X442620000Y-85000000D01*
X442620000Y-85000000D02*
X445840000Y-81780000D01*
%TO.N,GND*%
X448710000Y-91900000D02*
X448710000Y-86530000D01*
X448710000Y-86530000D02*
X453460000Y-81780000D01*
%TO.N,ROW3*%
X209899000Y-103649000D02*
X211000000Y-104750000D01*
X305089000Y-103649000D02*
X306190000Y-104750000D01*
X269481000Y-103649000D02*
X286029000Y-103649000D01*
X326481000Y-103649000D02*
X343279000Y-103649000D01*
X362279000Y-103649000D02*
X363380000Y-104750000D01*
X267279000Y-103649000D02*
X268380000Y-104750000D01*
X470000000Y-70320000D02*
X476320000Y-64000000D01*
X402851000Y-103649000D02*
X470149000Y-103649000D01*
X468750000Y-91250000D02*
X468750000Y-85250000D01*
X211000000Y-104750000D02*
X212101000Y-103649000D01*
X400500000Y-103500000D02*
X401750000Y-104750000D01*
X248029000Y-103649000D02*
X249130000Y-104750000D01*
X382500000Y-104750000D02*
X383750000Y-103500000D01*
X324279000Y-103649000D02*
X325380000Y-104750000D01*
X288231000Y-103649000D02*
X305089000Y-103649000D01*
X286029000Y-103649000D02*
X287130000Y-104750000D01*
X249130000Y-104750000D02*
X250231000Y-103649000D01*
X191149000Y-103649000D02*
X192250000Y-104750000D01*
X470000000Y-84000000D02*
X470000000Y-70320000D01*
X344380000Y-104750000D02*
X345481000Y-103649000D01*
X306190000Y-104750000D02*
X307291000Y-103649000D01*
X383750000Y-103500000D02*
X400500000Y-103500000D01*
X364481000Y-103649000D02*
X381399000Y-103649000D01*
X325380000Y-104750000D02*
X326481000Y-103649000D01*
X468750000Y-85250000D02*
X470000000Y-84000000D01*
X228899000Y-103649000D02*
X230000000Y-104750000D01*
X470149000Y-103649000D02*
X471250000Y-104750000D01*
X343279000Y-103649000D02*
X344380000Y-104750000D01*
X287130000Y-104750000D02*
X288231000Y-103649000D01*
X250231000Y-103649000D02*
X267279000Y-103649000D01*
X381399000Y-103649000D02*
X382500000Y-104750000D01*
X192250000Y-104750000D02*
X193351000Y-103649000D01*
X173000000Y-104750000D02*
X174101000Y-103649000D01*
X363380000Y-104750000D02*
X364481000Y-103649000D01*
X193351000Y-103649000D02*
X209899000Y-103649000D01*
X212101000Y-103649000D02*
X228899000Y-103649000D01*
X401750000Y-104750000D02*
X402851000Y-103649000D01*
X345481000Y-103649000D02*
X362279000Y-103649000D01*
X230000000Y-104750000D02*
X231101000Y-103649000D01*
X231101000Y-103649000D02*
X248029000Y-103649000D01*
X174101000Y-103649000D02*
X191149000Y-103649000D01*
X307291000Y-103649000D02*
X324279000Y-103649000D01*
X268380000Y-104750000D02*
X269481000Y-103649000D01*
%TO.N,ROW6*%
X374899000Y-160899000D02*
X376000000Y-162000000D01*
X204380000Y-162000000D02*
X205481000Y-160899000D01*
X462250000Y-88138000D02*
X462250000Y-70450000D01*
X393899000Y-160899000D02*
X395000000Y-162000000D01*
X260279000Y-160899000D02*
X261380000Y-162000000D01*
X185380000Y-162000000D02*
X186481000Y-160899000D01*
X470029000Y-160899000D02*
X471130000Y-162000000D01*
X336899000Y-160899000D02*
X338000000Y-162000000D01*
X377101000Y-160899000D02*
X393899000Y-160899000D01*
X186481000Y-160899000D02*
X203279000Y-160899000D01*
X357190000Y-162000000D02*
X358291000Y-160899000D01*
X358291000Y-160899000D02*
X374899000Y-160899000D01*
X434101000Y-160899000D02*
X470029000Y-160899000D01*
X395000000Y-162000000D02*
X397250000Y-164250000D01*
X320101000Y-160899000D02*
X336899000Y-160899000D01*
X356089000Y-160899000D02*
X357190000Y-162000000D01*
X462250000Y-70450000D02*
X468700000Y-64000000D01*
X261380000Y-162000000D02*
X262481000Y-160899000D01*
X262481000Y-160899000D02*
X317899000Y-160899000D01*
X376000000Y-162000000D02*
X377101000Y-160899000D01*
X397250000Y-164250000D02*
X430750000Y-164250000D01*
X338000000Y-162000000D02*
X339101000Y-160899000D01*
X433000000Y-162000000D02*
X434101000Y-160899000D01*
X430750000Y-164250000D02*
X433000000Y-162000000D01*
X319000000Y-162000000D02*
X320101000Y-160899000D01*
X339101000Y-160899000D02*
X356089000Y-160899000D01*
X317899000Y-160899000D02*
X319000000Y-162000000D01*
X205481000Y-160899000D02*
X260279000Y-160899000D01*
X203279000Y-160899000D02*
X204380000Y-162000000D01*
%TO.N,COL15*%
X456000000Y-82750000D02*
X456000000Y-81780000D01*
X472440000Y-92710000D02*
X465960000Y-92710000D01*
X465960000Y-92710000D02*
X456000000Y-82750000D01*
%TO.N,ROW1*%
X413750000Y-66000000D02*
X413500000Y-65750000D01*
X413940000Y-66000000D02*
X413750000Y-66000000D01*
X413940000Y-66000000D02*
X414000000Y-66000000D01*
X414000000Y-66000000D02*
X414250000Y-65750000D01*
%TO.N,ROW5*%
X299750000Y-142750000D02*
X300851000Y-141649000D01*
X280750000Y-143000000D02*
X281851000Y-141899000D01*
X241279000Y-141899000D02*
X242380000Y-143000000D01*
X279649000Y-141899000D02*
X280750000Y-143000000D01*
X336649000Y-141899000D02*
X337750000Y-143000000D01*
X222529000Y-141899000D02*
X223630000Y-143000000D01*
X319000000Y-143000000D02*
X320101000Y-141899000D01*
X377101000Y-141649000D02*
X393899000Y-141649000D01*
X261630000Y-143000000D02*
X262731000Y-141899000D01*
X185630000Y-143000000D02*
X186731000Y-141899000D01*
X356149000Y-141899000D02*
X357000000Y-142750000D01*
X262731000Y-141899000D02*
X279649000Y-141899000D01*
X317649000Y-141649000D02*
X319000000Y-143000000D01*
X242380000Y-143000000D02*
X243481000Y-141899000D01*
X357000000Y-142750000D02*
X358101000Y-141649000D01*
X243481000Y-141899000D02*
X260529000Y-141899000D01*
X338851000Y-141899000D02*
X356149000Y-141899000D01*
X224731000Y-141899000D02*
X241279000Y-141899000D01*
X186731000Y-141899000D02*
X203279000Y-141899000D01*
X205481000Y-141899000D02*
X222529000Y-141899000D01*
X260529000Y-141899000D02*
X261630000Y-143000000D01*
X393899000Y-141649000D02*
X395000000Y-142750000D01*
X320101000Y-141899000D02*
X336649000Y-141899000D01*
X281851000Y-141899000D02*
X298899000Y-141899000D01*
X204380000Y-143000000D02*
X205481000Y-141899000D01*
X471130000Y-142870000D02*
X471130000Y-142750000D01*
X395000000Y-142750000D02*
X395000000Y-144000000D01*
X376000000Y-142750000D02*
X377101000Y-141649000D01*
X374899000Y-141649000D02*
X376000000Y-142750000D01*
X203279000Y-141899000D02*
X204380000Y-143000000D01*
X358101000Y-141649000D02*
X374899000Y-141649000D01*
X337750000Y-143000000D02*
X338851000Y-141899000D01*
X298899000Y-141899000D02*
X299750000Y-142750000D01*
X223630000Y-143000000D02*
X224731000Y-141899000D01*
X300851000Y-141649000D02*
X317649000Y-141649000D01*
%TO.N,OLED SCL*%
X446170000Y-86530000D02*
X450920000Y-81780000D01*
X446170000Y-91900000D02*
X446170000Y-86530000D01*
%TO.N,COL10*%
X435207100Y-62000000D02*
X320000000Y-62000000D01*
X435680000Y-64000000D02*
X435680000Y-62472900D01*
X320000000Y-62000000D02*
X320040000Y-62040000D01*
X435680000Y-62472900D02*
X435207100Y-62000000D01*
X320040000Y-62040000D02*
X320040000Y-73660000D01*
%TO.N,ROW4*%
X272231000Y-122649000D02*
X289029000Y-122649000D01*
X270029000Y-122649000D02*
X271130000Y-123750000D01*
X253231000Y-122649000D02*
X270029000Y-122649000D01*
X290130000Y-123750000D02*
X291231000Y-122649000D01*
X212779000Y-122649000D02*
X213880000Y-123750000D01*
X309130000Y-123750000D02*
X310231000Y-122649000D01*
X327279000Y-122649000D02*
X328380000Y-123750000D01*
X467500000Y-90750000D02*
X467500000Y-70280000D01*
X233000000Y-123750000D02*
X234101000Y-122649000D01*
X329481000Y-122649000D02*
X346279000Y-122649000D01*
X467000000Y-91250000D02*
X467500000Y-90750000D01*
X348481000Y-122649000D02*
X365279000Y-122649000D01*
X271130000Y-123750000D02*
X272231000Y-122649000D01*
X308029000Y-122649000D02*
X309130000Y-123750000D01*
X213880000Y-123750000D02*
X214981000Y-122649000D01*
X347380000Y-123750000D02*
X348481000Y-122649000D01*
X252130000Y-123750000D02*
X253231000Y-122649000D01*
X467500000Y-70280000D02*
X473780000Y-64000000D01*
X328380000Y-123750000D02*
X329481000Y-122649000D01*
X310231000Y-122649000D02*
X327279000Y-122649000D01*
X193899000Y-122649000D02*
X195000000Y-123750000D01*
X196101000Y-122649000D02*
X212779000Y-122649000D01*
X234101000Y-122649000D02*
X251029000Y-122649000D01*
X175880000Y-123750000D02*
X176981000Y-122649000D01*
X231899000Y-122649000D02*
X233000000Y-123750000D01*
X214981000Y-122649000D02*
X231899000Y-122649000D01*
X291231000Y-122649000D02*
X308029000Y-122649000D01*
X289029000Y-122649000D02*
X290130000Y-123750000D01*
X346279000Y-122649000D02*
X347380000Y-123750000D01*
X365279000Y-122649000D02*
X366380000Y-123750000D01*
X251029000Y-122649000D02*
X252130000Y-123750000D01*
X176981000Y-122649000D02*
X193899000Y-122649000D01*
X195000000Y-123750000D02*
X196101000Y-122649000D01*
%TO.N,OLED SDA*%
X443630000Y-91900000D02*
X443630000Y-86530000D01*
X443630000Y-86530000D02*
X448380000Y-81780000D01*
%TO.N,COL12*%
X369450000Y-107000000D02*
X422000000Y-107000000D01*
X364690000Y-111760000D02*
X369450000Y-107000000D01*
%TO.N,VCC*%
X473780000Y-87220000D02*
X473780000Y-81780000D01*
X470250000Y-91000000D02*
X470250000Y-90750000D01*
X451250000Y-91900000D02*
X453850000Y-94500000D01*
X470250000Y-90750000D02*
X473780000Y-87220000D01*
X453850000Y-94500000D02*
X469750000Y-94500000D01*
%TO.N,ROW2*%
X476604184Y-88470866D02*
X480299000Y-84776050D01*
X224731000Y-84649000D02*
X241529000Y-84649000D01*
X374649000Y-84649000D02*
X375750000Y-85750000D01*
X185380000Y-85750000D02*
X186481000Y-84649000D01*
X298279000Y-84649000D02*
X299630000Y-86000000D01*
X480299000Y-84776050D02*
X480299000Y-77600537D01*
X338851000Y-84649000D02*
X355899000Y-84649000D01*
X318149000Y-84899000D02*
X319000000Y-85750000D01*
X166500000Y-85750000D02*
X167601000Y-84649000D01*
X299630000Y-86000000D02*
X300731000Y-84899000D01*
X480299000Y-77600537D02*
X479504000Y-76805537D01*
X281731000Y-84649000D02*
X298279000Y-84649000D01*
X336649000Y-84649000D02*
X337750000Y-85750000D01*
X471175184Y-97000000D02*
X476604184Y-91571000D01*
X260130000Y-84250000D02*
X261630000Y-85750000D01*
X167601000Y-84649000D02*
X184279000Y-84649000D01*
X355899000Y-84649000D02*
X357000000Y-85750000D01*
X204380000Y-85750000D02*
X205481000Y-84649000D01*
X300731000Y-84899000D02*
X318149000Y-84899000D01*
X319000000Y-85750000D02*
X320101000Y-84649000D01*
X186481000Y-84649000D02*
X203279000Y-84649000D01*
X205481000Y-84649000D02*
X222529000Y-84649000D01*
X203279000Y-84649000D02*
X204380000Y-85750000D01*
X476604184Y-91571000D02*
X476604184Y-88470866D01*
X465500000Y-97000000D02*
X471175184Y-97000000D01*
X244130000Y-84250000D02*
X260130000Y-84250000D01*
X358101000Y-84649000D02*
X374649000Y-84649000D01*
X320101000Y-84649000D02*
X336649000Y-84649000D01*
X479504000Y-65896000D02*
X481400000Y-64000000D01*
X357000000Y-85750000D02*
X358101000Y-84649000D01*
X337750000Y-85750000D02*
X338851000Y-84649000D01*
X223630000Y-85750000D02*
X224731000Y-84649000D01*
X479504000Y-76805537D02*
X479504000Y-65896000D01*
X262731000Y-84649000D02*
X279529000Y-84649000D01*
X279529000Y-84649000D02*
X280630000Y-85750000D01*
X222529000Y-84649000D02*
X223630000Y-85750000D01*
X261630000Y-85750000D02*
X262731000Y-84649000D01*
X184279000Y-84649000D02*
X185380000Y-85750000D01*
X280630000Y-85750000D02*
X281731000Y-84649000D01*
X242630000Y-85750000D02*
X244130000Y-84250000D01*
X241529000Y-84649000D02*
X242630000Y-85750000D01*
%TO.N,ROW5*%
X413000000Y-162000000D02*
X414000000Y-162000000D01*
X456750000Y-157250000D02*
X471130000Y-142870000D01*
X418750000Y-157250000D02*
X456750000Y-157250000D01*
X414000000Y-162000000D02*
X418750000Y-157250000D01*
X395000000Y-144000000D02*
X413000000Y-162000000D01*
%TD*%
M02*
