M48
; DRILL file {KiCad 9.0.6} date 2026-03-03T07:32:06+1100
; FORMAT={-:-/ absolute / metric / decimal}
; #@! TF.CreationDate,2026-03-03T07:32:06+11:00
; #@! TF.GenerationSoftware,Kicad,Pcbnew,9.0.6
; #@! TF.FileFunction,NonPlated,1,2,NPTH
FMAT,2
METRIC
; #@! TA.AperFunction,NonPlated,NPTH,ComponentDrill
T1C1.700
; #@! TA.AperFunction,NonPlated,NPTH,ComponentDrill
T2C1.850
; #@! TA.AperFunction,NonPlated,NPTH,ComponentDrill
T3C2.200
; #@! TA.AperFunction,NonPlated,NPTH,ComponentDrill
T4C3.200
; #@! TA.AperFunction,NonPlated,NPTH,ComponentDrill
T5C4.000
%
G90
G05
T1
X147.32Y-76.2
X147.32Y-95.25
X150.67Y-114.3
X152.38Y-133.35
X156.86Y-171.5
X156.88Y-152.4
X157.48Y-76.2
X157.48Y-95.25
X160.83Y-114.3
X162.54Y-133.35
X166.37Y-76.2
X166.37Y-95.25
X167.02Y-171.5
X167.04Y-152.4
X172.92Y-114.3
X175.92Y-133.35
X176.53Y-76.2
X176.53Y-95.25
X183.08Y-114.3
X185.42Y-76.2
X185.42Y-95.25
X185.42Y-152.4
X185.42Y-171.45
X186.08Y-133.35
X191.97Y-114.3
X194.97Y-133.35
X195.58Y-76.2
X195.58Y-95.25
X195.58Y-152.4
X195.58Y-171.45
X202.13Y-114.3
X204.47Y-76.2
X204.47Y-95.25
X204.47Y-152.4
X204.47Y-171.45
X205.13Y-133.35
X211.02Y-114.3
X214.02Y-133.35
X214.63Y-76.2
X214.63Y-95.25
X214.63Y-152.4
X214.63Y-171.45
X221.18Y-114.3
X223.52Y-76.2
X223.52Y-95.25
X223.52Y-152.4
X224.18Y-133.35
X230.07Y-114.3
X233.07Y-133.35
X233.68Y-76.2
X233.68Y-95.25
X233.68Y-152.4
X240.23Y-114.3
X242.57Y-76.2
X242.57Y-95.25
X242.57Y-152.4
X243.23Y-133.35
X249.12Y-114.3
X252.12Y-133.35
X252.73Y-76.2
X252.73Y-95.25
X252.73Y-152.4
X259.28Y-114.3
X261.62Y-76.2
X261.62Y-95.25
X261.62Y-152.4
X261.62Y-171.45
X262.28Y-133.35
X268.17Y-114.3
X271.17Y-133.35
X271.78Y-76.2
X271.78Y-95.25
X271.78Y-152.4
X271.78Y-171.45
X278.33Y-114.3
X280.67Y-76.2
X280.67Y-95.25
X280.67Y-152.4
X281.33Y-133.35
X287.22Y-114.3
X290.22Y-133.35
X290.83Y-76.2
X290.83Y-95.25
X290.83Y-152.4
X297.38Y-114.3
X299.72Y-76.2
X299.72Y-95.25
X299.72Y-152.4
X300.38Y-133.35
X306.27Y-114.3
X309.27Y-133.35
X309.88Y-76.2
X309.88Y-95.25
X309.88Y-152.4
X316.43Y-114.3
X318.77Y-76.2
X318.77Y-95.25
X318.77Y-152.4
X318.77Y-171.45
X319.43Y-133.35
X325.32Y-114.3
X328.32Y-133.35
X328.93Y-76.2
X328.93Y-95.25
X328.93Y-152.4
X328.93Y-171.45
X335.48Y-114.3
X337.82Y-76.2
X337.82Y-95.25
X337.82Y-152.4
X337.82Y-171.45
X338.48Y-133.35
X344.37Y-114.3
X347.37Y-133.35
X347.98Y-76.2
X347.98Y-95.25
X347.98Y-152.4
X347.98Y-171.45
X354.53Y-114.3
X356.87Y-76.2
X356.87Y-95.25
X356.87Y-152.4
X356.87Y-171.45
X357.53Y-133.35
X363.42Y-114.3
X366.42Y-133.35
X367.03Y-76.2
X367.03Y-95.25
X367.03Y-152.4
X367.03Y-171.45
X373.58Y-114.3
X375.92Y-76.2
X375.92Y-95.25
X375.92Y-152.4
X375.92Y-171.45
X376.58Y-133.35
X382.47Y-114.3
X386.08Y-76.2
X386.08Y-95.25
X386.08Y-152.4
X386.08Y-171.45
X392.63Y-114.3
X394.92Y-133.35
X394.97Y-76.2
X394.97Y-152.4
X394.97Y-171.45
X401.52Y-114.3
X404.67Y-95.25
X405.08Y-133.35
X405.13Y-76.2
X405.13Y-152.4
X405.13Y-171.45
X411.68Y-114.3
X414.02Y-76.2
X414.02Y-152.4
X414.02Y-171.45
X414.83Y-95.25
X424.18Y-76.2
X424.18Y-152.4
X424.18Y-171.45
X433.07Y-171.45
X443.23Y-171.45
X471.17Y-95.25
X471.17Y-114.3
X471.17Y-133.35
X471.17Y-152.4
X471.17Y-171.45
X481.33Y-95.25
X481.33Y-114.3
X481.33Y-133.35
X481.33Y-152.4
X481.33Y-171.45
T2
X480.78Y-70.465
X480.78Y-75.315
T3
X483.81Y-70.165
X483.81Y-75.615
T4
X147.574Y-60.02
X147.752Y-176.53
X456.946Y-174.498
T5
X152.4Y-76.2
X152.4Y-95.25
X155.75Y-114.3
X157.46Y-133.35
X161.94Y-171.5
X161.96Y-152.4
X171.45Y-76.2
X171.45Y-95.25
X178.0Y-114.3
X181.0Y-133.35
X190.5Y-76.2
X190.5Y-95.25
X190.5Y-152.4
X190.5Y-171.45
X197.05Y-114.3
X200.05Y-133.35
X209.55Y-76.2
X209.55Y-95.25
X209.55Y-152.4
X209.55Y-171.45
X216.1Y-114.3
X219.1Y-133.35
X228.6Y-76.2
X228.6Y-95.25
X228.6Y-152.4
X235.15Y-114.3
X238.15Y-133.35
X247.65Y-76.2
X247.65Y-95.25
X247.65Y-152.4
X254.2Y-114.3
X257.2Y-133.35
X266.7Y-76.2
X266.7Y-95.25
X266.7Y-152.4
X266.7Y-171.45
X273.25Y-114.3
X276.25Y-133.35
X285.75Y-76.2
X285.75Y-95.25
X285.75Y-152.4
X292.3Y-114.3
X295.3Y-133.35
X304.8Y-76.2
X304.8Y-95.25
X304.8Y-152.4
X311.35Y-114.3
X314.35Y-133.35
X323.85Y-76.2
X323.85Y-95.25
X323.85Y-152.4
X323.85Y-171.45
X330.4Y-114.3
X333.4Y-133.35
X342.9Y-76.2
X342.9Y-95.25
X342.9Y-152.4
X342.9Y-171.45
X349.45Y-114.3
X352.45Y-133.35
X361.95Y-76.2
X361.95Y-95.25
X361.95Y-152.4
X361.95Y-171.45
X368.5Y-114.3
X371.5Y-133.35
X381.0Y-76.2
X381.0Y-95.25
X381.0Y-152.4
X381.0Y-171.45
X387.55Y-114.3
X400.0Y-133.35
X400.05Y-76.2
X400.05Y-152.4
X400.05Y-171.45
X406.6Y-114.3
X409.75Y-95.25
X419.1Y-76.2
X419.1Y-152.4
X419.1Y-171.45
X438.15Y-171.45
X476.25Y-95.25
X476.25Y-114.3
X476.25Y-133.35
X476.25Y-152.4
X476.25Y-171.45
M30
